<svg xmlns="http://www.w3.org/2000/svg" xmlns:xlink="http://www.w3.org/1999/xlink" width="226.32" height="261.332" viewBox="0 0 226.32 261.332">
  <defs>
    <clipPath id="clip-path">
      <path id="Path_299" data-name="Path 299" d="M0,43.375H142.9V-75.652H0Z" transform="translate(0 75.652)" fill="#711e2a"/>
    </clipPath>
  </defs>
  <g id="Group_424" data-name="Group 424" transform="translate(-192 -9174)">
    <g id="Group_113" data-name="Group 113" transform="translate(192 9174)">
      <path id="Path_310" data-name="Path 310" d="M65,0-48.161,65.332V196L65,261.332,178.159,196V65.332Z" transform="translate(48.161)" fill="#84929f"/>
    </g>
    <path id="Path_295" data-name="Path 295" d="M0,23.165H142.9V-75.652H0ZM0-75.652m6.293,6.293H136.6v86.23H6.293Z" transform="translate(234 9321.663)" fill="#711e2a"/>
    <path id="Path_296" data-name="Path 296" d="M8.621,3.269H124.388V-5.7H8.621Z" transform="translate(238.943 9361.769)" fill="#711e2a"/>
    <path id="Path_297" data-name="Path 297" d="M51.531,3.567H42.56V-14.045h8.971Z" transform="translate(258.402 9356.985)" fill="#711e2a"/>
    <g id="Group_97" data-name="Group 97" transform="translate(234 9246.011)" clip-path="url(#clip-path)">
      <g id="Group_96" data-name="Group 96" transform="translate(52.511 21.083)">
        <path id="Path_298" data-name="Path 298" d="M8.7,9.788q6.9,1.463,10.348,4.377T22.5,22.523a12.764,12.764,0,0,1-3.682,9.319A17.44,17.44,0,0,1,8.7,36.587v6.964H.676V36.587a19.855,19.855,0,0,1-11.109-5.043A15.45,15.45,0,0,1-15.177,21h9.486a7.8,7.8,0,0,0,3.416,5.441,12.623,12.623,0,0,0,7.329,1.987,10.221,10.221,0,0,0,5.538-1.259,4.019,4.019,0,0,0,1.959-3.583q0-3.58-5.707-4.643l-7.3-1.392Q-13.387,14.965-13.385,4.285A13.1,13.1,0,0,1-9.571-5.333,16.831,16.831,0,0,1,.676-9.976v-7.1H8.7v7.294a18.921,18.921,0,0,1,9.451,4.445q3.88,3.45,4.545,9.95H13.146q-1-6.634-8.557-6.635A9.764,9.764,0,0,0-1.05-.557,4.641,4.641,0,0,0-3.172,3.489,3.924,3.924,0,0,0-1.613,6.837,12.215,12.215,0,0,0,3.13,8.662Z" transform="translate(15.177 17.072)" fill="#711e2a"/>
      </g>
    </g>
  </g>
</svg>
