<svg xmlns="http://www.w3.org/2000/svg" xmlns:xlink="http://www.w3.org/1999/xlink" width="226.32" height="261.332" viewBox="0 0 226.32 261.332">
  <defs>
    <clipPath id="clip-path">
      <path id="Path_309" data-name="Path 309" d="M0,72.387H122.888v-198.64H0Z" transform="translate(0 126.253)" fill="#711e2a"/>
    </clipPath>
  </defs>
  <g id="Group_426" data-name="Group 426" transform="translate(-968 -9174)">
    <g id="Group_113" data-name="Group 113" transform="translate(968 9174)">
      <path id="Path_310" data-name="Path 310" d="M65,0-48.161,65.332V196L65,261.332,178.159,196V65.332Z" transform="translate(48.161)" fill="#84929f"/>
    </g>
    <g id="Group_111" data-name="Group 111" transform="translate(1020 9206)" clip-path="url(#clip-path)">
      <g id="Group_109" data-name="Group 109" transform="translate(16.442 108.635)">
        <path id="Path_307" data-name="Path 307" d="M32.8,19.369V3.071L23.774,1.9a36.929,36.929,0,0,0-3.968-9.5l5.574-7.242L13.856-26.365l-7.275,5.6A36.974,36.974,0,0,0-2.87-24.678l-1.183-9.1h-16.3l-1.183,9.1a36.927,36.927,0,0,0-9.451,3.914l-7.275-5.6L-49.788-14.84-44.213-7.6a37.021,37.021,0,0,0-3.968,9.489l-9.025,1.18v16.3l8.967,1.172a36.909,36.909,0,0,0,3.952,9.583l-5.5,7.154L-38.263,48.8l7.119-5.474a36.969,36.969,0,0,0,9.629,4.01l1.161,8.882h16.3l1.16-8.882a36.924,36.924,0,0,0,9.629-4.01L13.856,48.8,25.381,37.279l-5.5-7.154a36.986,36.986,0,0,0,3.954-9.59ZM-12.2,32.6A21.275,21.275,0,0,1-33.478,11.328,21.275,21.275,0,0,1-12.2-9.947,21.275,21.275,0,0,1,9.071,11.328,21.275,21.275,0,0,1-12.2,32.6" transform="translate(57.206 33.783)" fill="#711e2a"/>
      </g>
      <g id="Group_110" data-name="Group 110" transform="translate(-0.001 0)">
        <path id="Path_308" data-name="Path 308" d="M35.706,36.069,19.78,30.052v-17.9a41.489,41.489,0,0,0,5.529-8.323A12.1,12.1,0,0,0,33.834-2.96c2.459-5.186,1.082-11.149-3-14.253.079-1.235.116-2.456.116-3.647,0-15.771-8.661-31.727-25.254-33.311L4.421-62.909H1.7c-20.2,0-34.313,17.291-34.313,42.049,0,1.191.038,2.412.116,3.647-4.081,3.1-5.46,9.067-3,14.253a12.094,12.094,0,0,0,8.523,6.786,41.423,41.423,0,0,0,5.529,8.323v17.9l-15.925,6.016A38.519,38.519,0,0,0-62.276,72.1v3.342H-39.8c.412-1.042.851-2.072,1.347-3.081l-6.235-8.1L-27.3,46.87l8.145,6.27a41.894,41.894,0,0,1,4.7-1.948l.357-2.741-3.752-14.506A26.8,26.8,0,0,0-5.242,40.411L-5.281,41h8.9l-.039-.592a26.8,26.8,0,0,0,12.609-6.466L12.436,48.453l.357,2.739a41.627,41.627,0,0,1,4.695,1.948l8.145-6.27L43.027,64.263l-6.235,8.1c.5,1.009.935,2.039,1.347,3.081H60.613V72.1A38.519,38.519,0,0,0,35.706,36.069m-22.219-8.21c-4.24,4.405-9.171,6.726-14.319,6.726s-10.076-2.321-14.317-6.726V17.837a25.221,25.221,0,0,0,14.317,4.6,25.218,25.218,0,0,0,14.319-4.6ZM-.832,16.145c-8.5,0-16.435-6.2-21.215-16.593L-22.9-2.3l-2.034.017a5.756,5.756,0,0,1-4.876-3.378c-1.3-2.747-.5-5.869,1.655-6.894l2.292-1.02-.212-2.247c-.164-1.715-.245-3.411-.245-5.043,0-19.882,10.277-34.1,25.317-35.621L.235-48.006h2.72c14.911,0,21.7,14.072,21.7,27.147,0,1.632-.082,3.328-.245,5.043L24.2-13.57l2.226.993c2.236,1.12,3.011,4.2,1.721,6.921A5.638,5.638,0,0,1,23.3-2.278H23.27L21.234-2.3l-.85,1.849C15.606,9.943,7.675,16.145-.832,16.145" transform="translate(62.276 62.909)" fill="#711e2a"/>
      </g>
    </g>
  </g>
</svg>
