<svg xmlns="http://www.w3.org/2000/svg" width="226.32" height="261.332" viewBox="0 0 226.32 261.332">
  <g id="Group_423" data-name="Group 423" transform="translate(-968 -8799)">
    <g id="Group_113" data-name="Group 113" transform="translate(968 8799)">
      <path id="Path_310" data-name="Path 310" d="M65,0-48.161,65.332V196L65,261.332,178.159,196V65.332Z" transform="translate(48.161)" fill="#84929f"/>
    </g>
    <g id="Group_107" data-name="Group 107" transform="translate(1026 8865)">
      <path id="Path_306" data-name="Path 306" d="M0,0V129.332H110.737V95.5h-76.9V0ZM6.293,6.295h21.25v95.5h76.9v21.25H95.356v-8.466H89.062v8.466H79.975V109.853H73.681V123.04H64.6v-8.466H58.3v8.466H49.216V109.853H42.922V123.04H6.293v-9.088H14.76v-6.293H6.293V98.573H19.478V92.278H6.293V83.194H14.76V76.9H6.293V67.813H19.478V61.519H6.293V52.433H14.76V46.14H6.293V37.052H19.478V30.761H6.293V21.673H14.76V15.381H6.293Z" fill="#711e2a"/>
    </g>
  </g>
</svg>
