<svg xmlns="http://www.w3.org/2000/svg" xmlns:xlink="http://www.w3.org/1999/xlink" width="226.32" height="261.332" viewBox="0 0 226.32 261.332">
  <defs>
    <clipPath id="clip-path">
      <path id="Path_305" data-name="Path 305" d="M0,42.321H164.785V-73.814H0Z" transform="translate(0 73.814)" fill="#711e2a"/>
    </clipPath>
  </defs>
  <g id="Group_425" data-name="Group 425" transform="translate(-580 -9174)">
    <g id="Group_113" data-name="Group 113" transform="translate(580 9174)">
      <path id="Path_310" data-name="Path 310" d="M65,0-48.161,65.332V196L65,261.332,178.159,196V65.332Z" transform="translate(48.161)" fill="#84929f"/>
    </g>
    <g id="Group_105" data-name="Group 105" transform="translate(611 9247)" clip-path="url(#clip-path)">
      <g id="Group_104" data-name="Group 104" transform="translate(0 0)">
        <path id="Path_304" data-name="Path 304" d="M60.05,15.667,17.058-27.325h-78.8l-42.992,42.992,30.4,30.4,13.18-13.182-.911,55.923H17.379l-.911-55.923,13.18,13.182ZM-.268-21.032A25.438,25.438,0,0,1-22.344-8.174,25.442,25.442,0,0,1-44.419-21.032Zm-74.065,58.2-21.5-21.5,3.417-3.417,21.5,21.5Zm18.665,45.349.077-4.72H-41.56l2.993,4.72Zm39.456,0L-19.2,77.8h4.221l2.993,4.72ZM9.921,17.441l.267,16.448a2.04,2.04,0,0,1-3.762,1.127l-12.02-18.96a9.7,9.7,0,0,0-12.991-3.4,9.44,9.44,0,0,0-3.166,13.18L-1.489,57.788a1.615,1.615,0,0,1-.5,2.228,1.613,1.613,0,0,1-2.228-.5l-7.017-11.067a9.7,9.7,0,0,0-12.991-3.4,9.44,9.44,0,0,0-3.166,13.18l6.68,10.538A1.783,1.783,0,0,1-22.214,71.5a1.783,1.783,0,0,1-1.506-.829L-34.757,53.265a9.7,9.7,0,0,0-12.991-3.4,9.44,9.44,0,0,0-3.166,13.18l4.646,7.329a.738.738,0,0,1-.625,1.133h-8.6l.883-54.062L-66.466,29.3l-21.5-21.5,28.832-28.832h7.706A31.736,31.736,0,0,0-22.344-1.881,31.738,31.738,0,0,0,6.745-21.032h7.706L43.282,7.8l-21.5,21.5Zm37.811-5.192,3.417,3.417-21.5,21.5L26.23,33.751Z" transform="translate(104.735 27.325)" fill="#711e2a"/>
      </g>
    </g>
  </g>
</svg>
