<svg xmlns="http://www.w3.org/2000/svg" xmlns:xlink="http://www.w3.org/1999/xlink" width="226.32" height="261.332" viewBox="0 0 226.32 261.332">
  <defs>
    <clipPath id="clip-path">
      <path id="Path_303" data-name="Path 303" d="M0,51.4H140.363V-89.655H0Z" transform="translate(0 89.655)" fill="#711e2a"/>
    </clipPath>
  </defs>
  <g id="Group_422" data-name="Group 422" transform="translate(-580 -8799)">
    <g id="Group_113" data-name="Group 113" transform="translate(580 8799)">
      <path id="Path_310" data-name="Path 310" d="M65,0-48.161,65.332V196L65,261.332,178.159,196V65.332Z" transform="translate(48.161)" fill="#84929f"/>
    </g>
    <g id="Group_102" data-name="Group 102" transform="translate(623 8859)" clip-path="url(#clip-path)">
      <g id="Group_99" data-name="Group 99" transform="translate(0 0)">
        <path id="Path_300" data-name="Path 300" d="M36.987,21.842V3.462L26.81,2.139A41.729,41.729,0,0,0,22.336-8.569l6.286-8.166-13-13-8.2,6.315A41.706,41.706,0,0,0-3.236-27.83L-4.572-38.1h-18.38L-24.287-27.83a41.682,41.682,0,0,0-10.656,4.415l-8.205-6.315-13,13,6.286,8.166a41.65,41.65,0,0,0-4.473,10.7L-64.51,3.462v18.38l10.11,1.322a41.7,41.7,0,0,0,4.457,10.807l-6.2,8.068,13,13,8.029-6.172a41.686,41.686,0,0,0,10.859,4.522L-22.952,63.4h18.38l1.309-10.016A41.675,41.675,0,0,0,7.595,48.863l8.029,6.172,13-13-6.2-8.068a41.609,41.609,0,0,0,4.457-10.814ZM-13.762,36.764a23.99,23.99,0,0,1-23.99-23.99,23.991,23.991,0,0,1,23.99-23.99,23.991,23.991,0,0,1,23.99,23.99,23.99,23.99,0,0,1-23.99,23.99" transform="translate(64.51 38.096)" fill="#711e2a"/>
      </g>
      <g id="Group_100" data-name="Group 100" transform="translate(95.301 56.443)">
        <path id="Path_301" data-name="Path 301" d="M16.421,6.43,13.276-1.161,8.847.033A18.657,18.657,0,0,0,5.169-3.624l1.2-4.446-7.591-3.145L-3.532-7.2a18.615,18.615,0,0,0-5.156,0L-11-11.215-18.587-8.07-17.382-3.6A18.609,18.609,0,0,0-21.028.044L-25.5-1.161-28.641,6.43l3.993,2.3a18.632,18.632,0,0,0-.017,5.184L-28.641,16.2l3.145,7.591,4.4-1.185a18.6,18.6,0,0,0,3.689,3.7L-18.587,30.7-11,33.847l2.259-3.922a18.626,18.626,0,0,0,5.258.009l2.255,3.913L6.368,30.7l-1.174-4.36a18.627,18.627,0,0,0,3.712-3.726l4.371,1.177L16.421,16.2l-3.941-2.27a18.667,18.667,0,0,0-.009-5.23ZM-1.985,21.275A10.726,10.726,0,0,1-16,15.471a10.726,10.726,0,0,1,5.8-14.012,10.724,10.724,0,0,1,14.012,5.8,10.724,10.724,0,0,1-5.8,14.012" transform="translate(28.641 11.215)" fill="#711e2a"/>
      </g>
      <g id="Group_101" data-name="Group 101" transform="translate(57.053 95.996)">
        <path id="Path_302" data-name="Path 302" d="M16.421,6.43,13.276-1.161,8.847.033A18.657,18.657,0,0,0,5.169-3.624l1.2-4.446-7.591-3.145L-3.532-7.2a18.615,18.615,0,0,0-5.156,0L-11-11.215l-3.795,1.572-3.8,1.573L-17.382-3.6A18.609,18.609,0,0,0-21.028.044L-25.5-1.161-28.641,6.43l3.993,2.3a18.632,18.632,0,0,0-.017,5.184L-28.641,16.2l3.145,7.591,4.4-1.185a18.6,18.6,0,0,0,3.689,3.7L-18.587,30.7-11,33.847l2.259-3.922a18.626,18.626,0,0,0,5.258.009l2.255,3.913L6.368,30.7l-1.174-4.36a18.627,18.627,0,0,0,3.712-3.726l4.371,1.177L16.421,16.2l-3.941-2.27a18.667,18.667,0,0,0-.009-5.23ZM-1.985,21.275A10.726,10.726,0,0,1-16,15.471a10.726,10.726,0,0,1,5.8-14.012,10.724,10.724,0,0,1,14.012,5.8,10.724,10.724,0,0,1-5.8,14.012" transform="translate(28.641 11.215)" fill="#711e2a"/>
      </g>
    </g>
  </g>
</svg>
