<svg xmlns="http://www.w3.org/2000/svg" xmlns:xlink="http://www.w3.org/1999/xlink" width="200" height="67.088" viewBox="0 0 200 67.088">
  <defs>
    <clipPath id="clip-path">
      <path id="Path_344" data-name="Path 344" d="M0-47.633H200v-67.088H0Z" transform="translate(0 114.721)" fill="#fff"/>
    </clipPath>
  </defs>
  <g id="Group_404" data-name="Group 404" transform="translate(-50 -50)">
    <g id="Group_357" data-name="Group 357" transform="translate(50 50)" clip-path="url(#clip-path)">
      <path id="Path_343" data-name="Path 343" d="M196.92-50.682H20.2v-60.988H196.92ZM14.237-98.065v1.082H5.976l6.939-11.828h1.322L8.032-98.065Zm0,15.565h-1.1v-7.737a2.953,2.953,0,0,0-.89-2.118,3.026,3.026,0,0,0-2.139-.882,3.012,3.012,0,0,0-3.029,3v6.646h4.957V-82.5H5.976v-7.737a4.048,4.048,0,0,1,1.1-2.782c.064-.073.147-.146.22-.219a4.158,4.158,0,0,1,2.809-1.091,4.157,4.157,0,0,1,2.809,1.091l.22.219a4.046,4.046,0,0,1,1.1,2.782Zm0,4.473L11.41-73.981l-.633-.909,3.461-4.955ZM5.976-68.016v-1.091h6.233l-2.1-3-.633-.909-3.5-5.01v-1.818l4.13,5.919,3.369,4.819.762,1.091Zm8.261,9.028H5.976v-6.364h1.1v5.273h7.16Zm-7.16,5.446h-1.1V-57.9h1.1Zm-1.1-55.268H11.64l-.634,1.082H5.976Zm14.228-5.91H0v67.088H200v-67.088Z" transform="translate(0 114.721)" fill="#fff"/>
    </g>
    <g id="Group_358" data-name="Group 358" transform="translate(86.3 68.471)">
      <path id="Path_345" data-name="Path 345" d="M-9.084-19.459-19.561-45.307h5.305L-6.424-25.98ZM2.066-46.867-5.576-28.056l-7.613-18.811h-8.689L-9.66-16.722h1.151L3.117-45.307H8.423L-3.152-16.722h1.689l12.2-30.145Z" transform="translate(21.878 46.867)" fill="#fff"/>
    </g>
    <path id="Path_346" data-name="Path 346" d="M244.606-54.55H230.4v-4.857h14.208ZM230.4-83.135h-8.04v30.146h1.575V-81.575h4.9v28.587l17.343,0v-7.963H230.4Z" transform="translate(-42.324 151.606)" fill="#fff"/>
    <g id="Group_360" data-name="Group 360" transform="translate(50 50)" clip-path="url(#clip-path)">
      <g id="Group_359" data-name="Group 359" transform="translate(95.073 18.471)">
        <path id="Path_347" data-name="Path 347" d="M-16.039-10.586a6.894,6.894,0,0,1-2.155,5.108,7.072,7.072,0,0,1-5.157,2.12,7.081,7.081,0,0,1-5.172-2.12,6.935,6.935,0,0,1-2.14-5.108V-25.5h-1.575v14.911a8.421,8.421,0,0,0,2.615,6.212A8.57,8.57,0,0,0-23.35-1.8a8.569,8.569,0,0,0,6.271-2.576,8.4,8.4,0,0,0,2.6-6.212l.015-13.35h4.815v13.453a13.008,13.008,0,0,1-4.013,9.6A13.306,13.306,0,0,1-23.35,3.088,13.259,13.259,0,0,1-33.04-.886a13.007,13.007,0,0,1-4.012-9.6V-25.5h-1.575v15.013A14.523,14.523,0,0,0-34.155.218a14.807,14.807,0,0,0,10.8,4.43A14.772,14.772,0,0,0-12.561.218a14.537,14.537,0,0,0,4.488-10.7V-25.5h-7.965Z" transform="translate(38.628 25.497)" fill="#fff"/>
      </g>
    </g>
    <g id="Group_361" data-name="Group 361" transform="translate(112.737 68.471)">
      <path id="Path_349" data-name="Path 349" d="M-17.747-20.3-19.5-24.623H-14.2l1.753,4.327ZM-28.358-32.807l1.932-4.769,1.932,4.769Zm-4.371,6.639L-35.12-20.3h-5.291L-29.473-47.32h6.078l5.885,14.513h-5.305l-3.079-7.625h-1.064l-3.723,9.185h15.494L-22.328-48.88h-8.2L-42.743-18.735h8.689l2.381-5.888H-21.18l2.386,5.888h8.674l-3.01-7.433Z" transform="translate(42.743 48.88)" fill="#fff"/>
    </g>
    <path id="Path_350" data-name="Path 350" d="M266.484-76.717H256.1v-4.857h10.388Zm-11.963-6.418v7.963h11.963v22.181h1.575V-81.575h16.867v4.858H272.964v23.727h1.575V-75.172H286.5v-7.963Z" transform="translate(-55.678 151.606)" fill="#fff"/>
  </g>
</svg>
